custom-analysis
version=1
nRows=6
nColumns=98
inDegrees=no

This file contains tibia displacement and acting force.

Units are S.I. units (seconds, meters, Newtons, ...)
Angles are in degrees.

endheader
time	APT	SIT	knee_angle	aACL_R_force	pACL_R_force	aPCL_R_force	pPCL_R_force	aMCL_R_force	mMCL_R_force	pMCL_R_force	aLCL_R_force	mLCL_R_force	pLCL_R_force	aPCL_L_force	pPCL_L_force	aMCL_L_force	aLCL_L_force	aACL_R_length	pACL_R_length	aPCL_R_length	pPCL_R_length	aMCL_R_length	mMCL_R_length	pMCL_R_length	aLCL_R_length	mLCL_R_length	pLCL_R_length	aPCL_L_length	pPCL_L_length	aMCL_L_length	aLCL_L_length	aACL_R_strain	pACL_R_strain	aPCL_R_strain	pPCL_R_strain	aMCL_R_strain	mMCL_R_strain	pMCL_R_strain	aLCL_R_strain	mLCL_R_strain	pLCL_R_strain	aPCL_L_strain	pPCL_L_strain	aMCL_L_strain	aLCL_L_strain	femur_lat_meniscii_r.femur_lat_r.force.X	femur_lat_meniscii_r.femur_lat_r.force.Y	femur_lat_meniscii_r.femur_lat_r.force.Z	femur_lat_meniscii_r.femur_lat_r.torque.X	femur_lat_meniscii_r.femur_lat_r.torque.Y	femur_lat_meniscii_r.femur_lat_r.torque.Z	femur_lat_meniscii_r.meniscus_lat_r.force.X	femur_lat_meniscii_r.meniscus_lat_r.force.Y	femur_lat_meniscii_r.meniscus_lat_r.force.Z	femur_lat_meniscii_r.meniscus_lat_r.torque.X	femur_lat_meniscii_r.meniscus_lat_r.torque.Y	femur_lat_meniscii_r.meniscus_lat_r.torque.Z	femur_med_meniscii_r.femur_med_r.force.X	femur_med_meniscii_r.femur_med_r.force.Y	femur_med_meniscii_r.femur_med_r.force.Z	femur_med_meniscii_r.femur_med_r.torque.X	femur_med_meniscii_r.femur_med_r.torque.Y	femur_med_meniscii_r.femur_med_r.torque.Z	femur_med_meniscii_r.meniscus_med_r.force.X	femur_med_meniscii_r.meniscus_med_r.force.Y	femur_med_meniscii_r.meniscus_med_r.force.Z	femur_med_meniscii_r.meniscus_med_r.torque.X	femur_med_meniscii_r.meniscus_med_r.torque.Y	femur_med_meniscii_r.meniscus_med_r.torque.Z	femur_med_tibia_r.tibia_upper_r.force.X	femur_med_tibia_r.tibia_upper_r.force.Y	femur_med_tibia_r.tibia_upper_r.force.Z	femur_med_tibia_r.tibia_upper_r.torque.X	femur_med_tibia_r.tibia_upper_r.torque.Y	femur_med_tibia_r.tibia_upper_r.torque.Z	femur_med_tibia_r.femur_med_r.force.X	femur_med_tibia_r.femur_med_r.force.Y	femur_med_tibia_r.femur_med_r.force.Z	femur_med_tibia_r.femur_med_r.torque.X	femur_med_tibia_r.femur_med_r.torque.Y	femur_med_tibia_r.femur_med_r.torque.Z	femur_lat_tibia_r.tibia_upper_r.force.X	femur_lat_tibia_r.tibia_upper_r.force.Y	femur_lat_tibia_r.tibia_upper_r.force.Z	femur_lat_tibia_r.tibia_upper_r.torque.X	femur_lat_tibia_r.tibia_upper_r.torque.Y	femur_lat_tibia_r.tibia_upper_r.torque.Z	femur_lat_tibia_r.femur_lat_r.force.X	femur_lat_tibia_r.femur_lat_r.force.Y	femur_lat_tibia_r.femur_lat_r.force.Z	femur_lat_tibia_r.femur_lat_r.torque.X	femur_lat_tibia_r.femur_lat_r.torque.Y	femur_lat_tibia_r.femur_lat_r.torque.Z	femur_lat_meniscii_force_r	femur_med_meniscii_force_r	femur_lat_tibia_force_r	femur_med_tibia_force_r
      0.20974547	      0.01358741	      0.02610561	     81.19461429	      0.97490187	      0.00000000	    961.38487381	    605.84874581	     26.30780662	     12.85353149	      0.00000000	      0.00000000	      0.00000000	      0.00000000	      0.00000000	      0.00000000	      0.00000001	      0.00000000	      0.03102664	      0.02439808	      0.03715093	      0.03392935	      0.06143386	      0.05987379	      0.05651779	      0.05024454	      0.04480912	      0.03980361	      0.01525851	      0.01651186	      0.06550154	      0.04489616	      0.00068168	     -0.02636302	      0.19474408	      0.13522403	      0.02343710	      0.00134285	     -0.03763463	     -0.10241059	     -0.20436381	     -0.23955758	      0.00000079	     -0.32847694	      0.00000060	     -0.00000086	    215.42973941	    126.38491851	      6.33455412	     -5.38701212	      4.96028627	     85.61847772	   -215.42973941	   -126.38491851	     -6.33455412	      3.19674968	     -5.65678620	      2.76576281	      0.04178228	      0.00162412	     -0.02673615	      0.01065103	     -0.00065507	      0.01660461	     -0.04178228	     -0.00162412	      0.02673615	     -0.00010319	      0.00127796	     -0.00008300	   -894.18223740	   -364.24697864	    303.86804172	     -8.21219299	     21.84265184	      2.21236024	    894.18223740	    364.24697864	   -303.86804172	    128.93538436	    -15.78469330	    360.29738524	   -252.15874255	   -113.24004766	    -67.23513686	      3.63866180	     -8.59967437	      0.83975585	    252.15874255	    113.24004766	     67.23513686	    -29.87819228	      6.16300685	    101.67294330	    249.84644649	      0.04963082	    284.47830052	   1012.21219213
      0.20997484	      0.01357864	      0.02614938	     81.31862575	      1.02895719	      0.00000000	    963.01408748	    606.86787965	     26.21760969	     12.78192647	      0.00000000	      0.00000000	      0.00000000	      0.00000000	      0.00000000	      0.00000000	      0.00000001	      0.00000000	      0.03102724	      0.02440493	      0.03716058	      0.03393718	      0.06144099	      0.05987783	      0.05652352	      0.05023079	      0.04479360	      0.03979005	      0.01525851	      0.01651186	      0.06550154	      0.04489616	      0.00070108	     -0.02608951	      0.19505446	      0.13548607	      0.02355584	      0.00141043	     -0.03753707	     -0.10265622	     -0.20463926	     -0.23981654	      0.00000079	     -0.32847694	      0.00000060	     -0.00000086	    215.16168717	    125.54014023	      6.45160841	     -5.41435298	      4.95318205	     85.51096556	   -215.16168717	   -125.54014023	     -6.45160841	      3.17667600	     -5.65423247	      2.75730565	      0.04042532	      0.00140841	     -0.02655425	      0.01057598	     -0.00063942	      0.01606645	     -0.04042532	     -0.00140841	      0.02655425	     -0.00009917	      0.00126092	     -0.00008394	   -894.13450470	   -362.09639264	    304.57658588	     -8.16677149	     21.85757502	      2.20489559	    894.13450470	    362.09639264	   -304.57658588	    129.18126869	    -15.78136760	    360.27671141	   -253.26768705	   -113.11791698	    -67.33139569	      3.63242922	     -8.63322310	      0.84059631	    253.26768705	    113.11791698	     67.33139569	    -29.91230836	      6.18752667	    102.12023232	    249.19169666	      0.04838717	    285.43598457	   1011.61119346
      0.21003427	      0.01357636	      0.02616073	     81.35075940	      0.99801863	      0.00000000	    963.45438446	    607.19314371	     26.16754791	     12.75107812	      0.00000000	      0.00000000	      0.00000000	      0.00000000	      0.00000000	      0.00000000	      0.00000001	      0.00000000	      0.03102739	      0.02440671	      0.03716307	      0.03393921	      0.06144282	      0.05987888	      0.05652501	      0.05022723	      0.04478959	      0.03978655	      0.01525851	      0.01651186	      0.06550154	      0.04489616	      0.00070604	     -0.02601862	      0.19513474	      0.13555387	      0.02358647	      0.00142787	     -0.03751176	     -0.10271981	     -0.20471051	     -0.23988342	      0.00000079	     -0.32847694	      0.00000060	     -0.00000086	    214.95539115	    125.57764632	      6.82150545	     -5.56459556	      4.95186108	     85.42500118	   -214.95539115	   -125.57764632	     -6.82150545	      3.18132075	     -5.66296654	      2.76619422	      0.04017306	      0.00141269	     -0.02637616	      0.01050511	     -0.00063528	      0.01596597	     -0.04017306	     -0.00141269	      0.02637616	     -0.00009822	      0.00125263	     -0.00008235	   -894.13781887	   -361.64308622	    304.47054020	     -8.15182645	     21.85054022	      2.20669199	    894.13781887	    361.64308622	   -304.47054020	    129.12782104	    -15.77749023	    360.27661562	   -253.74575703	   -113.01805002	    -67.47032993	      3.63094254	     -8.65093252	      0.83584574	    253.74575703	    113.01805002	     67.47032993	    -29.96640871	      6.19933706	    102.31449226	    249.04236262	      0.04807882	    285.85351889	   1011.42002689
      0.21005293	      0.01357564	      0.02616429	     81.36084624	      0.28447364	      0.00000000	    965.54666856	    612.68557969	     28.08058752	     15.14651465	      0.00000000	      0.00000000	      0.00000000	      0.00000000	      0.00000000	      0.00000000	      0.00000001	      0.00000000	      0.03102744	      0.02440726	      0.03716386	      0.03393984	      0.06144340	      0.05987920	      0.05652548	      0.05022612	      0.04478833	      0.03978546	      0.01525851	      0.01651186	      0.06550154	      0.04489616	      0.00070756	     -0.02599639	      0.19515994	      0.13557516	      0.02359606	      0.00143333	     -0.03750382	     -0.10273976	     -0.20473286	     -0.23990439	      0.00000079	     -0.32847694	      0.00000060	     -0.00000086	    204.36086320	    125.88737258	      9.32133974	     -6.58359322	      4.73250313	     81.13050268	   -204.36086320	   -125.88737258	     -9.32133974	      3.21513189	     -5.48567147	      2.89133013	      0.03763030	      0.00158752	     -0.02479552	      0.00987819	     -0.00059581	      0.01495310	     -0.03763030	     -0.00158752	      0.02479552	     -0.00009423	      0.00117652	     -0.00006753	   -890.48523484	   -366.11071158	    301.66099097	     -8.16260121	     21.70013676	      2.43217401	    890.48523484	    366.11071158	   -301.66099097	    128.04275328	    -15.69446670	    358.73565598	   -252.65428772	   -114.52814692	    -68.40238594	      3.67950725	     -8.66319990	      0.91447679	    252.65428772	    114.52814692	     68.40238594	    -30.37907854	      6.18868386	    101.84747814	    240.20383085	      0.04509299	    285.70924371	   1008.96003889
      0.21007159	      0.01357464	      0.02616768	     81.37088654	     -1.63357122	      0.00000000	    971.11239024	    627.66678463	     33.39676188	     21.77496748	      0.00000000	      0.00000000	      0.00000000	      0.00000000	      0.00000000	      0.00000000	      0.00000001	      0.00000000	      0.03102740	      0.02440780	      0.03716491	      0.03394076	      0.06144411	      0.05987969	      0.05652613	      0.05022518	      0.04478727	      0.03978459	      0.01525851	      0.01651186	      0.06550154	      0.04489616	      0.00070621	     -0.02597501	      0.19519371	      0.13560586	      0.02360785	      0.00144153	     -0.03749267	     -0.10275643	     -0.20475172	     -0.23992098	      0.00000079	     -0.32847694	      0.00000060	     -0.00000086	    175.41821799	    125.54686403	     15.76198002	     -9.18379766	      4.12781698	     69.41571607	   -175.41821799	   -125.54686403	    -15.76198002	      3.27414298	     -4.98502921	      3.18185098	      0.03054192	      0.00186932	     -0.02033013	      0.00810501	     -0.00048530	      0.01213140	     -0.03054192	     -0.00186932	      0.02033013	     -0.00008156	      0.00096220	     -0.00003394	   -879.57433230	   -377.53132805	    294.13411336	     -8.18948727	     21.28618059	      3.01927361	    879.57433230	    377.53132805	   -294.13411336	    125.13000551	    -15.45807999	    354.15850360	   -249.30933232	   -118.50521158	    -70.60200930	      3.80419262	     -8.67372547	      1.12521266	    249.30933232	    118.50521158	     70.60200930	    -31.36179980	      6.14745444	    100.42635792	    216.29148453	      0.03673714	    284.92678370	   1001.34698598
      0.21010521	      0.01357254	      0.02617360	     81.38892562	     -2.27167484	      0.00000000	    973.39997489	    633.20565681	     35.27357936	     24.11626216	      0.00000000	      0.00000000	      0.00000000	      0.00000000	      0.00000000	      0.00000000	      0.00000001	      0.00000000	      0.03102722	      0.02440874	      0.03716711	      0.03394274	      0.06144553	      0.05988077	      0.05652753	      0.05022372	      0.04478558	      0.03978329	      0.01525851	      0.01651186	      0.06550154	      0.04489616	      0.00070055	     -0.02593732	      0.19526447	      0.13567210	      0.02363161	      0.00145950	     -0.03746887	     -0.10278265	     -0.20478164	     -0.23994576	      0.00000079	     -0.32847694	      0.00000060	     -0.00000086	    165.04891336	    124.95127883	     17.70617172	     -9.95723470	      3.90687409	     65.22412572	   -165.04891336	   -124.95127883	    -17.70617172	      3.27927643	     -4.79165079	      3.26858722	      0.02715462	      0.00162751	     -0.01781889	      0.00710362	     -0.00042931	      0.01078612	     -0.02715462	     -0.00162751	      0.01781889	     -0.00007117	      0.00084638	     -0.00003112	   -873.52881060	   -380.02905609	    290.72199299	     -8.16774097	     21.08466136	      3.20386990	    873.52881060	    380.02905609	   -290.72199299	    123.77057642	    -15.33436673	    351.66328458	   -247.82025071	   -119.76319241	    -71.24447862	      3.84226532	     -8.66520866	      1.20093142	    247.82025071	    119.76319241	     71.24447862	    -31.65051585	      6.12473880	     99.79920976	    207.76783774	      0.03251977	    284.31298714	    995.98892746
